<svg width="16" height="16" viewBox="0 0 16 16" fill="none" xmlns="http://www.w3.org/2000/svg">
<path d="M7.99998 14.6663C7.08887 14.6663 6.22776 14.4913 5.41665 14.1413C4.60553 13.7913 3.8972 13.3136 3.29165 12.708C2.68609 12.1025 2.20831 11.3941 1.85831 10.583C1.50831 9.7719 1.33331 8.91079 1.33331 7.99967C1.33331 7.07745 1.50831 6.21356 1.85831 5.40801C2.20831 4.60245 2.68609 3.8969 3.29165 3.29134C3.8972 2.68579 4.60553 2.20801 5.41665 1.85801C6.22776 1.50801 7.08887 1.33301 7.99998 1.33301C8.9222 1.33301 9.78609 1.50801 10.5916 1.85801C11.3972 2.20801 12.1028 2.68579 12.7083 3.29134C13.3139 3.8969 13.7916 4.60245 14.1416 5.40801C14.4916 6.21356 14.6666 7.07745 14.6666 7.99967C14.6666 8.91079 14.4916 9.7719 14.1416 10.583C13.7916 11.3941 13.3139 12.1025 12.7083 12.708C12.1028 13.3136 11.3972 13.7913 10.5916 14.1413C9.78609 14.4913 8.9222 14.6663 7.99998 14.6663ZM7.99998 13.2997C8.28887 12.8997 8.53887 12.483 8.74998 12.0497C8.96109 11.6163 9.13331 11.1552 9.26665 10.6663H6.73331C6.86665 11.1552 7.03887 11.6163 7.24998 12.0497C7.46109 12.483 7.71109 12.8997 7.99998 13.2997ZM6.26665 13.033C6.06665 12.6663 5.89165 12.2858 5.74165 11.8913C5.59165 11.4969 5.46665 11.0886 5.36665 10.6663H3.39998C3.7222 11.2219 4.12498 11.7052 4.60831 12.1163C5.09165 12.5275 5.64442 12.833 6.26665 13.033ZM9.73331 13.033C10.3555 12.833 10.9083 12.5275 11.3916 12.1163C11.875 11.7052 12.2778 11.2219 12.6 10.6663H10.6333C10.5333 11.0886 10.4083 11.4969 10.2583 11.8913C10.1083 12.2858 9.93331 12.6663 9.73331 13.033ZM2.83331 9.33301H5.09998C5.06665 9.11079 5.04165 8.89134 5.02498 8.67467C5.00831 8.45801 4.99998 8.23301 4.99998 7.99967C4.99998 7.76634 5.00831 7.54134 5.02498 7.32467C5.04165 7.10801 5.06665 6.88856 5.09998 6.66634H2.83331C2.77776 6.88856 2.73609 7.10801 2.70831 7.32467C2.68054 7.54134 2.66665 7.76634 2.66665 7.99967C2.66665 8.23301 2.68054 8.45801 2.70831 8.67467C2.73609 8.89134 2.77776 9.11079 2.83331 9.33301ZM6.43331 9.33301H9.56665C9.59998 9.11079 9.62498 8.89134 9.64165 8.67467C9.65831 8.45801 9.66665 8.23301 9.66665 7.99967C9.66665 7.76634 9.65831 7.54134 9.64165 7.32467C9.62498 7.10801 9.59998 6.88856 9.56665 6.66634H6.43331C6.39998 6.88856 6.37498 7.10801 6.35831 7.32467C6.34165 7.54134 6.33331 7.76634 6.33331 7.99967C6.33331 8.23301 6.34165 8.45801 6.35831 8.67467C6.37498 8.89134 6.39998 9.11079 6.43331 9.33301ZM10.9 9.33301H13.1666C13.2222 9.11079 13.2639 8.89134 13.2916 8.67467C13.3194 8.45801 13.3333 8.23301 13.3333 7.99967C13.3333 7.76634 13.3194 7.54134 13.2916 7.32467C13.2639 7.10801 13.2222 6.88856 13.1666 6.66634H10.9C10.9333 6.88856 10.9583 7.10801 10.975 7.32467C10.9916 7.54134 11 7.76634 11 7.99967C11 8.23301 10.9916 8.45801 10.975 8.67467C10.9583 8.89134 10.9333 9.11079 10.9 9.33301ZM10.6333 5.33301H12.6C12.2778 4.77745 11.875 4.29412 11.3916 3.88301C10.9083 3.4719 10.3555 3.16634 9.73331 2.96634C9.93331 3.33301 10.1083 3.71356 10.2583 4.10801C10.4083 4.50245 10.5333 4.91079 10.6333 5.33301ZM6.73331 5.33301H9.26665C9.13331 4.84412 8.96109 4.38301 8.74998 3.94967C8.53887 3.51634 8.28887 3.09967 7.99998 2.69967C7.71109 3.09967 7.46109 3.51634 7.24998 3.94967C7.03887 4.38301 6.86665 4.84412 6.73331 5.33301ZM3.39998 5.33301H5.36665C5.46665 4.91079 5.59165 4.50245 5.74165 4.10801C5.89165 3.71356 6.06665 3.33301 6.26665 2.96634C5.64442 3.16634 5.09165 3.4719 4.60831 3.88301C4.12498 4.29412 3.7222 4.77745 3.39998 5.33301Z" fill="#7E7E7E"/>
</svg>
